<svg width="86" height="14" viewBox="0 0 86 14" fill="none" xmlns="http://www.w3.org/2000/svg">
<g id="Read more">
<path d="M10.118 13.0001H8.26501L6.75201 8.97113C6.59334 8.54046 6.36101 8.2458 6.05501 8.08713C5.74901 7.91713 5.32968 7.83213 4.79701 7.83213H2.14501V13.0001H0.411011V0.89613H5.39201C6.71801 0.89613 7.73234 1.1908 8.43501 1.78013C9.14901 2.36946 9.50601 3.2138 9.50601 4.31313C9.50601 5.10646 9.29634 5.7808 8.87701 6.33613C8.45768 6.89146 7.86268 7.28246 7.09201 7.50913C7.79468 7.6338 8.30468 8.13246 8.62201 9.00513L10.118 13.0001ZM5.18801 6.42113C6.07201 6.42113 6.72934 6.25113 7.16001 5.91113C7.59068 5.5598 7.80601 5.03846 7.80601 4.34713C7.80601 3.6558 7.59068 3.1458 7.16001 2.81713C6.74068 2.47713 6.08334 2.30713 5.18801 2.30713H2.14501V6.42113H5.18801Z" fill="#4089ED"/>
<path d="M19.4215 8.75013H13.3015C13.3582 10.7561 14.2705 11.7591 16.0385 11.7591C17.0245 11.7591 17.9255 11.4361 18.7415 10.7901L19.2685 12.0141C18.8832 12.3541 18.3902 12.6261 17.7895 12.8301C17.2002 13.0228 16.6052 13.1191 16.0045 13.1191C14.6332 13.1191 13.5565 12.7281 12.7745 11.9461C11.9925 11.1528 11.6015 10.0705 11.6015 8.69913C11.6015 7.82646 11.7715 7.05013 12.1115 6.37013C12.4629 5.69013 12.9502 5.16313 13.5735 4.78913C14.1969 4.41513 14.9052 4.22813 15.6985 4.22813C16.8545 4.22813 17.7612 4.60213 18.4185 5.35013C19.0872 6.09813 19.4215 7.13513 19.4215 8.46113V8.75013ZM15.7325 5.50313C15.0865 5.50313 14.5595 5.6958 14.1515 6.08113C13.7435 6.46646 13.4829 7.01613 13.3695 7.73013H17.9085C17.8405 7.0048 17.6195 6.45513 17.2455 6.08113C16.8715 5.6958 16.3672 5.50313 15.7325 5.50313Z" fill="#4089ED"/>
<path d="M29.2288 4.43213V13.0001H27.5288V11.5381C27.2795 12.0481 26.9055 12.4391 26.4068 12.7111C25.9195 12.9831 25.3471 13.1191 24.6898 13.1191C23.9305 13.1191 23.2618 12.9378 22.6838 12.5751C22.1171 12.2125 21.6751 11.7025 21.3578 11.0451C21.0405 10.3765 20.8818 9.60013 20.8818 8.71613C20.8818 7.83213 21.0405 7.05013 21.3578 6.37013C21.6865 5.69013 22.1398 5.16313 22.7178 4.78913C23.2958 4.41513 23.9531 4.22813 24.6898 4.22813C25.3471 4.22813 25.9195 4.3698 26.4068 4.65313C26.8941 4.92513 27.2681 5.31613 27.5288 5.82613V4.43213H29.2288ZM25.0978 11.7591C25.8685 11.7591 26.4635 11.4928 26.8828 10.9601C27.3135 10.4161 27.5288 9.6568 27.5288 8.68213C27.5288 7.69613 27.3135 6.9368 26.8828 6.40413C26.4635 5.87146 25.8628 5.60513 25.0808 5.60513C24.3101 5.60513 23.7038 5.8828 23.2618 6.43813C22.8311 6.98213 22.6158 7.74146 22.6158 8.71613C22.6158 9.67946 22.8311 10.4275 23.2618 10.9601C23.7038 11.4928 24.3158 11.7591 25.0978 11.7591Z" fill="#4089ED"/>
<path d="M39.5882 0.488129V13.0001H37.8882V11.5381C37.6388 12.0481 37.2648 12.4391 36.7662 12.7111C36.2788 12.9831 35.7065 13.1191 35.0492 13.1191C34.3125 13.1191 33.6552 12.9321 33.0772 12.5581C32.4992 12.1841 32.0458 11.6628 31.7172 10.9941C31.3998 10.3141 31.2412 9.53213 31.2412 8.64813C31.2412 7.76413 31.3998 6.9878 31.7172 6.31913C32.0345 5.65046 32.4765 5.1348 33.0432 4.77213C33.6212 4.40946 34.2898 4.22813 35.0492 4.22813C35.6952 4.22813 36.2618 4.36413 36.7492 4.63613C37.2478 4.90813 37.6218 5.29346 37.8712 5.79213V0.488129H39.5882ZM35.4402 11.7591C36.2222 11.7591 36.8228 11.4928 37.2422 10.9601C37.6728 10.4161 37.8882 9.6568 37.8882 8.68213C37.8882 7.70746 37.6728 6.9538 37.2422 6.42113C36.8228 5.87713 36.2278 5.60513 35.4572 5.60513C34.6752 5.60513 34.0632 5.87146 33.6212 6.40413C33.1905 6.9368 32.9752 7.6848 32.9752 8.64813C32.9752 9.6228 33.1905 10.3878 33.6212 10.9431C34.0632 11.4871 34.6695 11.7591 35.4402 11.7591Z" fill="#4089ED"/>
<path d="M56.4178 4.22813C58.3218 4.22813 59.2738 5.3728 59.2738 7.66213V13.0001H57.5568V7.74713C57.5568 7.01046 57.4264 6.47213 57.1658 6.13213C56.9164 5.79213 56.5084 5.62213 55.9418 5.62213C55.2844 5.62213 54.7631 5.8488 54.3778 6.30213C54.0038 6.75546 53.8168 7.37313 53.8168 8.15513V13.0001H52.0998V7.74713C52.0998 7.01046 51.9694 6.47213 51.7088 6.13213C51.4594 5.79213 51.0514 5.62213 50.4848 5.62213C49.8274 5.62213 49.3061 5.8488 48.9208 6.30213C48.5354 6.75546 48.3428 7.37313 48.3428 8.15513V13.0001H46.6428V6.84613C46.6428 5.9508 46.5974 5.14613 46.5068 4.43213H48.1048L48.2578 5.86013C48.5071 5.3388 48.8641 4.93646 49.3288 4.65313C49.7934 4.3698 50.3374 4.22813 50.9608 4.22813C52.2868 4.22813 53.1538 4.7778 53.5618 5.87713C53.8224 5.36713 54.2021 4.9648 54.7008 4.67013C55.2108 4.37546 55.7831 4.22813 56.4178 4.22813Z" fill="#4089ED"/>
<path d="M65.4226 13.1191C64.5839 13.1191 63.8473 12.9378 63.2126 12.5751C62.5779 12.2125 62.0849 11.6968 61.7336 11.0281C61.3936 10.3595 61.2236 9.57746 61.2236 8.68213C61.2236 7.7868 61.3936 7.0048 61.7336 6.33613C62.0849 5.65613 62.5779 5.1348 63.2126 4.77213C63.8473 4.40946 64.5839 4.22813 65.4226 4.22813C66.2499 4.22813 66.9809 4.40946 67.6156 4.77213C68.2503 5.1348 68.7376 5.65613 69.0776 6.33613C69.4289 7.0048 69.6046 7.7868 69.6046 8.68213C69.6046 9.57746 69.4289 10.3595 69.0776 11.0281C68.7376 11.6968 68.2503 12.2125 67.6156 12.5751C66.9809 12.9378 66.2499 13.1191 65.4226 13.1191ZM65.4056 11.7591C66.1989 11.7591 66.8053 11.4985 67.2246 10.9771C67.6439 10.4558 67.8536 9.6908 67.8536 8.68213C67.8536 7.69613 67.6383 6.9368 67.2076 6.40413C66.7883 5.87146 66.1933 5.60513 65.4226 5.60513C64.6406 5.60513 64.0343 5.87146 63.6036 6.40413C63.1729 6.9368 62.9576 7.69613 62.9576 8.68213C62.9576 9.6908 63.1673 10.4558 63.5866 10.9771C64.0173 11.4985 64.6236 11.7591 65.4056 11.7591Z" fill="#4089ED"/>
<path d="M75.8785 4.22813C76.1392 4.22813 76.4112 4.2678 76.6945 4.34713L76.6605 5.91113C76.3545 5.7978 76.0202 5.74113 75.6575 5.74113C74.8755 5.74113 74.2862 5.97913 73.8895 6.45513C73.5042 6.9198 73.3115 7.50913 73.3115 8.22313V13.0001H71.6115V6.84613C71.6115 5.9508 71.5662 5.14613 71.4755 4.43213H73.0735L73.2265 5.97913C73.4532 5.41246 73.8045 4.9818 74.2805 4.68713C74.7565 4.38113 75.2892 4.22813 75.8785 4.22813Z" fill="#4089ED"/>
<path d="M85.1471 8.75013H79.0271C79.0838 10.7561 79.9961 11.7591 81.7641 11.7591C82.7501 11.7591 83.6511 11.4361 84.4671 10.7901L84.9941 12.0141C84.6088 12.3541 84.1158 12.6261 83.5151 12.8301C82.9258 13.0228 82.3308 13.1191 81.7301 13.1191C80.3588 13.1191 79.2821 12.7281 78.5001 11.9461C77.7181 11.1528 77.3271 10.0705 77.3271 8.69913C77.3271 7.82646 77.4971 7.05013 77.8371 6.37013C78.1884 5.69013 78.6758 5.16313 79.2991 4.78913C79.9224 4.41513 80.6308 4.22813 81.4241 4.22813C82.5801 4.22813 83.4868 4.60213 84.1441 5.35013C84.8128 6.09813 85.1471 7.13513 85.1471 8.46113V8.75013ZM81.4581 5.50313C80.8121 5.50313 80.2851 5.6958 79.8771 6.08113C79.4691 6.46646 79.2084 7.01613 79.0951 7.73013H83.6341C83.5661 7.0048 83.3451 6.45513 82.9711 6.08113C82.5971 5.6958 82.0928 5.50313 81.4581 5.50313Z" fill="#4089ED"/>
</g>
</svg>
